<svg xmlns="http://www.w3.org/2000/svg" xmlns:xlink="http://www.w3.org/1999/xlink" xmlns:inkscape="http://www.inkscape.org/namespaces/inkscape" version="1.1" width="676" height="322" viewBox="0 0 676 322">
<g>
<g inkscape:groupmode="layer" inkscape:label="M&#xC1;SCARAS">
<path transform="matrix(1,0,0,-1,0,322)" d="M0 0H676V322H0Z"/>
</g>
<g inkscape:groupmode="layer" inkscape:label="Capa 3">
<path transform="matrix(1,0,0,-1,261.4523,185.8922)" d="M0 0-43.665 43.786-37.684 49.784 5.982 5.998Z" fill="#ffffff"/>
<path transform="matrix(1,0,0,-1,223.7687,185.8922)" d="M0 0-5.981 5.998 37.684 49.784 43.666 43.786Z" fill="#ffffff"/>
<path transform="matrix(1,0,0,-1,356.8407,185.8922)" d="M0 0-43.665 43.786-37.684 49.784 5.981 5.998Z" fill="#ffffff"/>
<path transform="matrix(1,0,0,-1,319.1569,185.8922)" d="M0 0-5.981 5.998 37.684 49.784 43.665 43.786Z" fill="#ffffff"/>
<path transform="matrix(1,0,0,-1,452.2313,185.8922)" d="M0 0-43.666 43.786-37.684 49.784 5.981 5.998Z" fill="#ffffff"/>
<path transform="matrix(1,0,0,-1,414.5477,185.8922)" d="M0 0-5.982 5.998 37.684 49.784 43.665 43.786Z" fill="#ffffff"/>
</g>
</g>
</svg>
